<?xml version="1.0" standalone="no"?>
<!DOCTYPE svg PUBLIC "-//W3C//DTD SVG 20010904//EN"
 "http://www.w3.org/TR/2001/REC-SVG-20010904/DTD/svg10.dtd">
<svg version="1.0" xmlns="http://www.w3.org/2000/svg"
 width="39.000000pt" height="16.000000pt" viewBox="0 0 39.000000 16.000000"
 preserveAspectRatio="xMidYMid meet">

<g transform="translate(0.000000,16.000000) scale(0.100000,-0.100000)"
fill="#000000" stroke="none">
<path d="M10 80 c0 -44 4 -60 14 -60 7 0 16 10 20 22 l6 23 15 -22 c9 -13 25
-23 36 -23 24 0 24 4 -3 40 l-22 30 24 25 23 25 -27 0 c-14 0 -29 -7 -32 -15
-8 -19 -24 -19 -24 0 0 8 -7 15 -15 15 -12 0 -15 -13 -15 -60z"/>
<path d="M140 135 c0 -2 9 -19 20 -37 11 -18 20 -43 20 -55 0 -14 6 -23 15
-23 9 0 15 9 15 23 0 12 9 36 20 52 24 36 25 45 5 45 -8 0 -19 -9 -26 -21
l-11 -21 -14 21 c-13 18 -44 30 -44 16z"/>
<path d="M270 96 c0 -50 19 -76 55 -76 31 0 55 35 55 82 0 31 -4 38 -20 38
-17 0 -20 -7 -20 -46 0 -38 -3 -45 -17 -42 -13 2 -19 15 -21 46 -2 28 -8 42
-18 42 -10 0 -14 -12 -14 -44z"/>
</g>
</svg>
